<svg xmlns="http://www.w3.org/2000/svg" viewBox="0 0 1765 696" width="1765" height="696"><title>New Project</title><style>		.s0 { fill: #050009 } 		.s1 { fill: #0074c0 } 		.s2 { fill: #ffffff } 	</style><path id="Path 1" fill-rule="evenodd" class="s0" d="m848.8 460.6l-2.9 1.7-0.1-6-24.9-331h-129.8l-1.6 10.2c15.7 0 48.4 9.4 48.4 24.8v5.8c0 16.6-17.5 70.9-22.2 90.2-6.8 27.5-16 60.9-24.2 88-8.7 28.2-16.4 60.4-23.6 88.6-3.6 13.5-7.3 31.1-11.8 43.7-1.7 4.9-11.3 40-11.6 43.7h32.1v-4.3c0-5.9 21.4-80.4 24.5-90.7 8.7-28.7 16.4-60.8 23.9-89.8 5.2-19.7 44.1-175.8 49.3-179.6l24.2 364.4h43c7 0 49.9-78.7 57.4-89.7 19.5-29.1 37-61.5 55.5-91.8 12.2-20.2 107.1-179.5 111.8-182.9l-97.8 364.4h52.5l104.7-394.7-72.6-0.3zm-241.1-192.6c16-20.3 29.5-42.9 29.5-78.5v-1.5c0-44.2-45.6-62.7-90.5-62.7l-185.1 0.1-1.9 10.1c15.3 1.3 47 8.9 47 24.8v8.8c0 18.5-18.3 68-22.8 89.5-6.1 29.1-16.6 59.4-23.6 87.2-15 58.5-33.5 116.9-47 174.5h96.3c58 0 100-6.2 136-28.8 27.5-17.2 59.5-60.6 59.5-103.8v-20.4c0-28.8-37.2-54.5-65.6-56.8v-2.9c23.4-0.6 57-25.4 68.2-39.6zm-183.5 30.8c6.9-29.8 15.8-56.4 22.7-86.6 2.5-11 8.5-32.3 12.3-41.7 5.9-14.3 11.9-21.8 32.1-21.8h26.3c27.5 0 59.7 13 59.7 37.9v16c0 52.8-48.5 96.2-100.6 96.2zm2.9 198.3h-20.4c-10.6 0-29.2-2.3-29.2-11.7v-7.3c0-9.3 15.6-66.6 19.2-78.5 3.4-11.1 20.2-68 20.2-77.5h40.8c38.3 0 89 15.7 89 51v10.2c0 69-50.8 113.8-119.6 113.8zm-238.2-361.6c22 0 47.1 10.9 47.1 32.1 0 21.8-16.5 74.8-22.8 95.4-9.1 30.2-14.6 66.1-24.9 94.5-18.9 52.1-23.3 145.4-92.4 145.4-26.1 0-39.4-10.3-39.4-36.5v-10.1h-55.5v23.2c0 34.3 43.7 46.7 80.3 46.7 104.5 0 132.4-69.3 154.3-154.8 10.6-41.3 22.6-81.2 32.8-121.8 4.5-17.9 9.9-43.9 16.1-61.1 3.1-8.6 15.5-55 15.6-63.2h-109.5zm947.3 336.8c0-11.4 13-20.2 24.9-20.4v-16c-21.3 4.9-33.6 15-33.6 40.8 0 29.8 26.9 43.7 56.9 43.7h5.8c24.8 0 56.9-15.4 56.9-37.9v-20.4c0-7.8-6.1-24.8-13.1-24.8h-52.5v40.8h8.7v-26.2h39.4c6 0 8.8 9.7 8.8 16v10.2c0 16.6-26.3 26.3-43.8 26.3h-14.6c-19.5 0-43.8-8-43.8-26.3zm27.7-317.8c0 11.2 10.5 14.8 14.6 20.5h-13.1v13h116.7v-13h-49.6c5.7-5.1 16.1-7.4 16.1-20.5 0-18.2-15.5-29.1-33.6-29.1h-13.1c-21 0-38 7.9-38 29.1zm8.8 1.5c0-13.9 20.3-17.5 35-17.5h4.4c12.4 0 27.7 5.5 27.7 17.5 0 10.6-18.2 19-29.1 19h-11.8c-10.5 0-26.2-8.5-26.2-19zm36.5 208.4c23.8 0 39.4-11.1 39.4-34.9 0-20-17.1-33.6-36.5-33.6h-5.8c-24 0-42.4 11-42.4 35v5.9c0 15.2 19.5 27.6 36.5 27.6zm-38-36.4c0-12.8 17.1-17.5 30.7-17.5h13.1c15.2 0 26.3 6.6 26.3 21.9 0 12.5-16.1 18.9-29.2 18.9h-11.7c-12.2 0-29.2-5.6-29.2-17.5zm75.9-77.2c0-14.8-11.1-16.5-18.9-23.4h17.5v-11.7h-80.3v11.7h35c14.5 0 36.5 7 36.5 20.4v4.4c0 14.8-55.5 11.7-71.5 11.7v11.7h61.3c8.6 0 20.4-8.5 20.4-17.6zm-43.7 148.7c-16.4 0-24.9-9.3-24.9-26.3h-14.6c0.6 18.1 13.5 18.8 19 26.3h-17.5v13.1h81.7v-13.1zm-354.6 61.2l-2.9-4.3v6zm-847.7 188c-0.2-8.2 1.7-15.8 5.4-23q5.7-10.8 16.7-17.5c7.3-4.5 15.7-6.7 25.4-6.7h1c8.3 0.1 15.7 1.4 22.3 3.9 6.4 2.6 11.7 6 15.8 10.2 3.9 4.2 7 8.9 8.9 14.1 1.9 5.3 2.9 10.9 2.9 16.9 0 9.8-2.3 18.4-6.7 25.8-4.3 7.4-10.3 13.1-17.9 17-7.5 3.8-15.8 5.8-24.5 5.9h-0.5-0.5c-13.2-0.3-24.5-4.1-33.8-11.5-9.3-7.4-14.1-19.2-14.5-35.1zm12.9 0.6c0 8.7 1.5 16.2 4.6 22.5 3 6.2 7.3 10.9 12.7 14 5.6 3.3 11.8 4.9 18.8 5 6.3 0 12.2-1.6 17.7-5 5.5-3.4 10-8.3 13.3-14.8q5.2-9.6 5.5-21.3c0.6-13.6-2.4-24.2-8.8-31.8-6.6-7.6-15.5-11.6-26.9-12-8.1-0.1-15 1.8-20.4 5.7-5.6 4-9.7 9.3-12.5 16q-4 9.9-4 21.7zm95.9 22.1v-40.7c0.9 0.1 1.6 0.2 2.4 0.2 0.7 0.1 1.5 0.2 2.5 0.3 1.2-0.1 2.2-0.2 3-0.3q1.1 0 2.6-0.2v37.1c0 5.8 1.3 10.8 3.7 14.6q3.8 5.9 12.5 5.9c6.1 0 10.3-2.1 12.5-6.3q3.5-6.2 3.5-14.5v-36.8c1.1 0 2.8 0.2 4.9 0.5 2.6-0.3 4.4-0.5 5.6-0.5v62.9c-1.5-0.1-2.6-0.2-3.2-0.3-0.6 0-1.3 0-2.2-0.1-0.8 0.1-1.5 0.1-2 0.1-0.4 0.1-1.5 0.2-3.1 0.3v-11.2c-2.3 4.1-5.2 7.1-8.4 9q-4.7 2.9-12.2 3.3c-8.9 0.3-14.8-2.1-17.7-7.5-3-5.4-4.4-10.7-4.4-15.8zm74.5 22.2v-62.9c1.5 0 3.1 0.2 4.6 0.5 3.2-0.3 5.1-0.5 5.9-0.5v13.1c1.6-3.2 4-6.3 7.2-9.3 3.1-3 6.5-4.5 10-4.5 1.7 0 3 0.2 4.1 0.5l-1.7 11c-1.8-1.4-3.9-2-6.1-2-4.6 0-7.9 1.7-10.1 5q-3.4 5-3.4 12.2v36.9c-1.5-0.4-3.4-0.7-5.3-0.7-1.9 0-3.6 0.3-5.2 0.7zm73.5 0v-62.9c1.3 0 3.2 0.2 5.8 0.5 2.2-0.3 3.8-0.5 4.7-0.5v11.3c4.9-8 11.4-12 19.7-12 4.7 0 8.8 1.2 12.3 3.6 3.5 2.4 5.7 5.5 6.8 9.2 5-8.8 12-13.1 20.6-12.8 7.3 0 12.7 2 16.2 6 3.4 3.9 5.1 10.2 5.1 18.6v39c-1.2-0.1-2.2-0.2-2.9-0.3-0.8 0-1.6 0-2.5-0.1-0.9 0.1-1.6 0.1-2.3 0.1-0.6 0.1-1.6 0.2-2.8 0.3v-36.6c0-6.8-1.1-12-3.3-15.3-2.2-3.4-6-5.1-11.4-5.1q-15.1 0-15.2 20.1v36.9c-0.9-0.1-1.8-0.2-2.6-0.3-0.8 0-1.7 0-2.5-0.1-0.8 0.1-1.7 0.1-2.4 0.1-0.8 0.1-1.7 0.2-3 0.3v-40.3c0-11.1-4.6-16.7-14.1-16.7-10.4 0-15.7 5.8-15.7 17.3v39.7c-1-0.1-2-0.2-2.8-0.3-0.7 0-1.6 0-2.5-0.1-0.7 0.1-1.4 0.1-2 0.1-0.6 0.1-1.6 0.2-3.2 0.3zm107.8 0v-62.9q1.6 0.2 2.5 0.2c0.8 0.1 1.6 0.2 2.6 0.3 1.2-0.1 2.1-0.2 2.8-0.3 0.8 0 1.7-0.1 2.6-0.2v62.9c-1.2-0.1-2.1-0.2-2.9-0.3-0.7 0-1.6 0-2.5-0.1-0.8 0.1-1.6 0.1-2.2 0.1-0.7 0.1-1.6 0.2-2.9 0.3zm5.1-92.1q2.9 0 4.7 1.9 1.9 1.9 1.9 4.8 0 2.8-1.9 4.7-1.8 1.9-4.7 1.9c-1.8 0-3.4-0.6-4.7-2-1.3-1.3-1.9-2.8-1.9-4.6 0-1.8 0.6-3.4 1.9-4.7 1.3-1.3 2.9-2 4.7-2zm29.5 92.1v-98.8c1.3 0 3.2 0.2 5.7 0.6 1.9-0.4 3.5-0.6 4.9-0.6v98.8c-1.8-0.1-3-0.2-3.7-0.3-0.7 0-1.4 0-2.2-0.1-0.9 0.1-1.6 0.1-2 0.1-0.5 0.1-1.5 0.2-2.7 0.3zm25.8-31.2c0.3-11 3.3-19.2 9.1-24.6 5.8-5.4 12.9-8.1 21.3-7.8 10.4 0.1 17.6 3.7 21.6 10.6 3.9 7 5.6 14.2 5.1 21.5-8.5-0.2-23.6-0.2-45.5-0.2q-1.1 11.3 5.3 19.2c4.1 5.3 10.1 8 17.8 8 6.2 0 12.5-3.1 19.2-9.1l-0.2 6.7c-7.1 5.4-14.6 8-22.4 8-10.1 0-18-3.1-23.3-9.4-5.3-6.4-8-13.9-8-22.9zm46.8-5.4c0-15.2-5.5-23-16.4-23.1-6 0-10.5 2.3-13.5 6.9-3 4.7-4.8 10.1-5.3 16.2zm21-8.3q0-8.4 6.3-13.5c4.1-3.4 9.1-5.2 14.8-5.2 6.3 0 11.3 1.2 15 3.4-1.2 3-2.2 6.1-3 9.1h-1.3c-2.7-5.6-6.5-8.4-11.5-8.4-2.9 0-5.3 0.7-7.6 2.2q-3.2 2.2-3.8 6.2c0 1.1 0 2-0.2 2.7 0 3.2 1.3 5.7 3.7 7.5 2.4 1.8 6 3.5 10.8 5.1 4.9 1.5 7.4 2.4 7.6 2.5 6.1 2.9 9 7.4 9 13.6 0 5.8-2.1 10.6-6.4 14.6-4.3 3.9-10.2 6-17.8 6.2-2.2 0-5-0.4-8.3-1.2-3.1-0.8-5.9-1.8-8.1-3.1 0.3-1 0.7-2.4 1.3-4.2 0.7-1.9 1.1-3.7 1.3-5.4h1c2 3.1 4.4 5.5 7.2 7.2 2.8 1.7 5.6 2.5 8.3 2.5 3.8 0 6.7-1.3 9.1-3.7 2.2-2.4 3.4-5 3.4-8q0-5.4-3.2-7.9c-2.1-1.7-5.2-3.1-9.3-4.2-4.7-1.3-8.2-2.4-10.4-3.4-2.3-1-4.2-2.7-5.7-4.9-1.5-2.2-2.3-5.5-2.2-9.7zm54.2 25.6v-38.8h-8.2c0.2-0.5 0.3-1.3 0.3-2.1 0-1.3-0.1-2.2-0.3-2.7h8.2v-13l10.5-4.1v17.1h13.9c0 1.1 0 1.9-0.2 2.7 0.2 0.5 0.2 1.2 0.2 2.1h-13.9v36.1q0 1.3-0.3 2.3c0.2 4.9 0.9 8.7 2.1 11.5 1.3 2.8 3.8 4.3 7.8 4.7 2.5-0.4 4.5-0.7 6-1v3c-4 1.5-7.9 2.4-11.7 2.4-3 0-5.4-0.5-7.2-1.3-3.1-1.8-5.1-4.1-6-7.1-0.8-3-1.2-7-1.2-11.8zm35.6-10.5c-0.3-6.5 1-12.4 3.9-17.6 2.8-5.1 6.8-9.2 11.8-12.1 5.1-2.9 10.7-4.4 16.6-4.4 6.2 0 11.6 1.5 16.5 4.3 4.7 2.7 8.5 6.5 11.1 11.5q3.9 7.4 3.9 16.4c0 5-1.1 10.1-3.4 15.2-2.4 5.1-6.1 9.3-11 12.6q-7.5 5-18.5 5c-6.1-0.1-11.5-1.5-16.1-4-4.6-2.5-8.1-6.1-10.6-10.7-2.6-4.5-4-9.9-4.2-16.2zm11.5-0.2c0 6.6 1.5 12.6 4.5 18.2 2.8 5.6 8 8.4 15.5 8.7 6 0 11-2.8 15-8.3 3.9-5.6 5.9-12.3 5.9-20.1 0-7-1.5-13.4-4.6-19.3-3.2-5.9-7.9-8.8-14.4-8.9-7.2-0.1-12.7 2.7-16.4 8.4-3.6 5.7-5.5 12.8-5.5 21.3zm66.7 30v-62.9c1.5 0 3 0.2 4.6 0.5 2.8-0.3 4.7-0.5 5.9-0.5v11.8c2.2-3.3 5-6.2 8.1-8.7 3.3-2.5 7.7-3.8 13.2-3.8 6.8 0 12 1.9 15.6 5.5 3.8 3.6 5.5 10 5.5 19.1v39c-1.2-0.1-2.1-0.2-2.8-0.3-0.6 0-1.5 0-2.4-0.1-0.7 0.1-1.5 0.1-2.1 0.1-0.6 0.1-1.7 0.2-3.3 0.3v-35.7c0-8.6-1.3-14.3-4-17.1-2.6-2.8-6.1-4.2-10.6-4.2-11.5 0-17.2 8.1-17.2 24.2v32.8c-1.4-0.1-2.5-0.2-3.3-0.3-0.8 0-1.6 0-2.6-0.1-0.7 0.1-1.3 0.1-1.9 0.1-0.6 0.1-1.5 0.2-2.7 0.3zm67.6-31.2c0.2-11 3.2-19.2 9-24.6 5.8-5.4 12.9-8.1 21.3-7.8 10.4 0.1 17.6 3.7 21.5 10.6 4 7 5.7 14.2 5.2 21.5-8.4-0.2-23.6-0.2-45.5-0.2q-1 11.3 5.2 19.2c4.3 5.3 10.3 8 18 8 6.1 0 12.5-3.1 19.1-9.1l-0.2 6.7c-7.1 5.4-14.6 8-22.3 8-10.3 0-18-3.1-23.3-9.4-5.4-6.4-8-13.9-8-22.9zm46.7-5.4c0-15.2-5.4-23-16.4-23.1-6 0-10.4 2.3-13.5 6.9-3 4.7-4.8 10.1-5.3 16.2zm21.1-8.3c0-5.6 2.2-10.1 6.3-13.5 4.1-3.4 9.1-5.2 14.7-5.2 6.4 0 11.4 1.2 15.2 3.4-1.4 3-2.3 6.1-3.1 9.1h-1.2c-2.7-5.6-6.6-8.4-11.6-8.4q-4.3 0-7.6 2.2-3.2 2.2-3.7 6.2c0 1.1-0.2 2-0.3 2.7 0.1 3.2 1.3 5.7 3.6 7.5 2.4 1.8 6 3.5 10.9 5.1 4.9 1.5 7.4 2.4 7.6 2.5 6 2.9 9.1 7.4 9.1 13.6 0 5.8-2.2 10.6-6.5 14.6-4.2 3.9-10.2 6-17.8 6.2-2.2 0-5-0.4-8.3-1.2-3.2-0.8-5.9-1.8-8-3.1 0.2-1 0.7-2.4 1.2-4.2 0.7-1.9 1.1-3.7 1.3-5.4h1q3 4.6 7.2 7.2c2.7 1.7 5.6 2.5 8.3 2.5q5.6-0.1 9.1-3.7c2.2-2.4 3.4-5 3.4-8 0-3.6-1.1-6.2-3.1-7.9-2.2-1.7-5.3-3.1-9.4-4.2-4.8-1.3-8.3-2.4-10.5-3.4q-3.3-1.6-5.6-4.9c-1.5-2.2-2.2-5.5-2.2-9.7zm90.3 30.1c0-5.2 1.1-9.2 3.6-12 2.4-2.6 6.8-4.6 13-5.7 0.5-0.1 3-0.5 7.7-1.1q7-0.9 10.5-2.7c2.2-1.3 3.4-3.5 3.4-6.7 0-4.3-1.5-8-4.5-10.9-3-2.8-6.5-4.3-10.9-4.3-3.5 0-6.6 0.8-9.6 2.4-3 1.4-5 3.7-6.1 6.6h-1.5v-7.2c7-4.8 14.1-7.2 21.2-7.2 6.7 0 11.9 1.8 15.7 5.1 3.8 3.4 5.7 8.8 5.7 16.3v31.5c0 0.7-0.1 1.3-0.3 1.8 0.3 1.4 0.6 2.4 1 3q0.6 0.9 2.5 1.6c0.9-0.2 1.5-0.2 1.9-0.4 0.6 0 1-0.1 1.2-0.2q0.3-0.1 1-0.1v2.7q-4.7 1.8-8.3 1.9c-5.7 0-8.7-2.7-9.2-8.1-5.7 6.5-12.3 9.6-20.1 9.6-5 0-9.4-1.5-12.8-4.5-3.4-3-5.1-6.8-5.1-11.4zm37.6 1.2v-19.2c-3.7 0.6-7.7 1.4-11.9 2.3-4.2 0.8-7.8 2.4-10.6 4.5-2.9 2.1-4.4 5.2-4.7 9.1 0.2 1.1 0.3 1.9 0.3 2.3 0.1 0.5 0.2 1.1 0.3 1.8 0.4 2.3 1.8 4.3 4 5.9 2.2 1.7 4.5 2.6 7.3 2.6 5.8-0.2 10.9-3.4 15.3-9.3zm32.2 13.6v-62.9c1.4 0 3 0.2 4.6 0.5 3.1-0.3 5-0.5 5.9-0.5v13.1c1.6-3.2 3.9-6.3 7.1-9.3 3.1-3 6.5-4.5 10-4.5 1.7 0 2.9 0.2 4.1 0.5l-1.7 11c-1.8-1.4-3.8-2-6.2-2-4.4 0-7.8 1.7-10 5-2.3 3.3-3.3 7.4-3.3 12.2v36.9c-1.6-0.4-3.5-0.7-5.5-0.7-1.8 0-3.5 0.3-5 0.7zm39.5-31.2c0.2-11 3.3-19.2 9-24.6 5.9-5.4 13-8.1 21.4-7.8 10.3 0.1 17.6 3.7 21.5 10.6 4 7 5.6 14.2 5.1 21.5-8.5-0.2-23.6-0.2-45.4-0.2q-1.1 11.3 5.2 19.2 6.3 8 17.9 8c6.1 0 12.5-3.1 19.2-9.1l-0.3 6.7c-7.1 5.4-14.5 8-22.4 8-10.2 0-17.9-3.1-23.2-9.4-5.4-6.4-8-13.9-8-22.9zm46.8-5.4c0-15.2-5.6-23-16.4-23.1-6 0-10.5 2.3-13.6 6.9-2.9 4.7-4.8 10.1-5.2 16.2zm62.9 17.3v-38.8h-8c0.2-0.5 0.2-1.3 0.2-2.1 0-1.3 0-2.2-0.2-2.7h8v-13l10.7-4.1v17.1h13.9c0 1.1-0.2 1.9-0.4 2.7 0.2 0.5 0.4 1.2 0.4 2.1h-13.9v36.1q0 1.3-0.3 2.3c0.2 4.9 0.8 8.7 2 11.5 1.2 2.8 3.9 4.3 7.8 4.7 2.4-0.4 4.5-0.7 6.1-1v3c-4 1.5-8 2.4-11.7 2.4-3.2 0-5.5-0.5-7.2-1.3-3.2-1.8-5.2-4.1-6-7.1-0.9-3-1.4-7-1.4-11.8zm32.1-10.5c-0.4-6.5 1-12.4 3.8-17.6q4.3-7.7 11.9-12.1c5.1-2.9 10.7-4.4 16.6-4.4 6.1 0 11.6 1.5 16.4 4.3 4.8 2.7 8.6 6.5 11.1 11.5 2.7 5 4 10.4 4 16.4 0 5-1.2 10.1-3.4 15.2-2.4 5.1-6.1 9.3-11 12.6-5 3.4-11.1 5-18.4 5h-0.2c-6.1-0.1-11.5-1.5-16-4-4.5-2.5-8.1-6.1-10.7-10.7-2.5-4.5-3.9-9.9-4.1-16.2zm11.6-0.2c0 6.6 1.3 12.6 4.3 18.2 3 5.6 8.1 8.4 15.5 8.7 6.1 0 11.1-2.8 15-8.3 4-5.6 6-12.3 6-20.1q0-10.4-4.7-19.3c-3.1-5.9-7.9-8.8-14.4-8.9q-10.8-0.2-16.3 8.4-5.4 8.5-5.4 21.3zm65.5 7.8v-40.7c0.9 0.1 1.7 0.2 2.4 0.2 0.8 0.1 1.6 0.2 2.4 0.3 1.3-0.1 2.3-0.2 3.1-0.3 0.8 0 1.7-0.1 2.6-0.2v37.1c0 5.8 1.3 10.8 3.7 14.6q3.8 5.9 12.5 5.9c6.1 0 10.3-2.1 12.6-6.3 2.3-4.1 3.4-9 3.4-14.5v-36.8c1.2 0 2.7 0.2 4.9 0.5 2.6-0.3 4.5-0.5 5.7-0.5v62.9c-1.7-0.1-2.7-0.2-3.3-0.3-0.5 0-1.2 0-2.1-0.1-0.8 0.1-1.5 0.1-2 0.1-0.6 0.1-1.6 0.2-3.2 0.3v-11.2c-2.4 4.1-5.1 7.1-8.3 9q-4.9 2.9-12.4 3.3c-8.7 0.3-14.7-2.1-17.6-7.5-3-5.4-4.4-10.7-4.4-15.8zm69.7-9.3c0-9.5 3-17.3 9-23.2q9-8.9 25.4-8.9c6.9-0.1 13.8 1.6 20.5 5.2l-2.9 8.6h-1.2q-5.9-9.4-16.6-9.4c-7.3 0-12.8 2.6-16.7 8-4 5.3-5.9 11.6-5.9 18.9 0 8.4 2.2 15.2 6.5 20.7 4.3 5.4 10.2 8.1 17.6 8.1 3.7 0 6.7-0.6 9.2-2 2.6-1.4 5.4-3.6 8.7-6.5l0.8 0.2-0.5 6.2c-6.5 4.5-13.3 6.7-20.2 6.7-6.8 0-12.8-1.3-18-4.1-5.1-2.7-9-6.5-11.7-11.5q-4-7.3-4-17zm70.6 31.5v-98.8c1.5 0 3 0.2 4.6 0.6 2.8-0.4 4.7-0.6 5.7-0.6v47.7c4.9-8.3 11.9-12.5 21.2-12.5q11.4-0.4 16.4 6.4c3.1 4.5 4.8 10.3 4.8 17.2v40c-0.5 0-1-0.1-1.7-0.1-0.6-0.1-1.3-0.1-1.9-0.2-0.6 0-1.2 0-1.7-0.1-0.7 0.1-1.5 0.1-2.3 0.1-0.6 0.1-1.6 0.2-3.1 0.3v-37.1c0-5.9-1-10.7-3-14.4-2-3.6-5.8-5.5-11.3-5.5-6.3 0.1-10.8 2-13.4 5.8-2.7 3.6-4 8.3-4 13.8v37.4c-1.2-0.1-2.1-0.2-2.8-0.3-0.8 0-1.5 0-2.5-0.1-0.7 0.1-1.4 0.1-2.1 0.1-0.6 0.1-1.7 0.2-2.9 0.3zm69.4-44.9c0-5.6 2.1-10.1 6.3-13.5 4.1-3.4 9-5.2 14.7-5.2 6.3 0 11.3 1.2 15.1 3.4q-2 4.6-3 9.1h-1.3c-2.7-5.6-6.6-8.4-11.6-8.4-2.8 0-5.3 0.7-7.5 2.2-2.2 1.5-3.5 3.5-3.8 6.2 0 1.1 0 2-0.3 2.7 0.1 3.2 1.4 5.7 3.7 7.5 2.4 1.8 6 3.5 10.9 5.1 4.8 1.5 7.4 2.4 7.6 2.5 6 2.9 9 7.4 9 13.6 0 5.8-2.1 10.6-6.5 14.6-4.2 3.9-10.2 6-17.7 6.2-2.2 0-5-0.4-8.2-1.2-3.3-0.8-6-1.8-8.3-3.1 0.3-1 0.8-2.4 1.4-4.2 0.6-1.9 1-3.7 1.3-5.4h0.9c2.1 3.1 4.5 5.5 7.3 7.2 2.8 1.7 5.5 2.5 8.2 2.5 3.8 0 6.9-1.3 9.1-3.7 2.3-2.4 3.5-5 3.5-8 0-3.6-1.1-6.2-3.3-7.9-2.1-1.7-5.1-3.1-9.3-4.2-4.7-1.3-8.2-2.4-10.4-3.4-2.3-1-4.1-2.7-5.7-4.9-1.5-2.2-2.2-5.5-2.1-9.7zm54.1 25.6v-38.8h-8.1c0.2-0.5 0.2-1.3 0.2-2.1 0-1.3 0-2.2-0.2-2.7h8.1v-13l10.6-4.1v17.1h13.9c0 1.1-0.1 1.9-0.3 2.7q0.3 0.7 0.3 2.1h-13.9v36.1c0 0.9-0.2 1.6-0.4 2.3 0.2 4.9 0.9 8.7 2.2 11.5 1.2 2.8 3.7 4.3 7.7 4.7 2.5-0.4 4.5-0.7 6.1-1v3c-4 1.5-8 2.4-11.7 2.4q-4.6 0-7.2-1.3c-3.2-1.8-5.2-4.1-6-7.1-0.9-3-1.3-7-1.3-11.8zm32-10.5c-0.3-6.5 1-12.4 3.8-17.6 2.9-5.1 6.9-9.2 12-12.1 5-2.9 10.6-4.4 16.5-4.4 6.1 0 11.6 1.5 16.4 4.3 4.8 2.7 8.6 6.5 11.2 11.5q4 7.4 4 16.4c0 5-1.1 10.1-3.5 15.2-2.3 5.1-6 9.3-11 12.6-5 3.4-11.1 5-18.4 5h-0.1c-6.1-0.1-11.5-1.5-16.1-4-4.5-2.5-8.1-6.1-10.6-10.7-2.5-4.5-4-9.9-4.2-16.2zm11.5-0.2c0 6.6 1.5 12.6 4.5 18.2 2.9 5.6 8.1 8.4 15.5 8.7 6.1 0 11.1-2.8 15.1-8.3 3.8-5.6 5.8-12.3 5.8-20.1 0-7-1.5-13.4-4.7-19.3-3-5.9-7.8-8.8-14.4-8.9-7.2-0.1-12.6 2.7-16.3 8.4-3.6 5.7-5.5 12.8-5.5 21.3zm66.7 30v-62.9c1.6 0 3 0.2 4.6 0.5 2.8-0.3 4.8-0.5 5.9-0.5v11.8c2.2-3.3 4.9-6.2 8.1-8.7 3.4-2.5 7.7-3.8 13.3-3.8 6.7 0 11.9 1.9 15.5 5.5q5.5 5.5 5.5 19.1v39c-1.1-0.1-2.1-0.2-2.8-0.3-0.6 0-1.4 0-2.4-0.1-0.7 0.1-1.5 0.1-2.1 0.1-0.6 0.1-1.7 0.2-3.3 0.3v-35.7c0-8.6-1.3-14.3-3.9-17.1-2.6-2.8-6.1-4.2-10.7-4.2-11.4 0-17.2 8.1-17.2 24.2v32.8c-1.4-0.1-2.5-0.2-3.3-0.3-0.7 0-1.6 0-2.6-0.1-0.7 0.1-1.3 0.1-1.9 0.1-0.6 0.1-1.5 0.2-2.7 0.3zm67.6-31.2c0.3-11 3.3-19.2 9-24.6 5.8-5.4 12.9-8.1 21.3-7.8 10.5 0.1 17.6 3.7 21.6 10.6 3.9 7 5.6 14.2 5.1 21.5-8.4-0.2-23.6-0.2-45.5-0.2-0.6 7.5 1.1 13.9 5.3 19.2q6.3 8 17.9 8c6.1 0 12.4-3.1 19.1-9.1l-0.2 6.7c-7.1 5.4-14.5 8-22.4 8-10.1 0-17.9-3.1-23.2-9.4-5.3-6.4-8-13.9-8-22.9zm46.7-5.4c0-15.2-5.4-23-16.4-23.1q-8.9 0-13.5 6.9c-3 4.7-4.7 10.1-5.3 16.2zm21.1-8.3c0-5.6 2-10.1 6.2-13.5 4.2-3.4 9.1-5.2 14.8-5.2 6.3 0 11.4 1.2 15.1 3.4-1.3 3-2.3 6.1-3.1 9.1h-1.3c-2.6-5.6-6.5-8.4-11.5-8.4-2.9 0-5.3 0.7-7.5 2.2-2.2 1.5-3.4 3.5-3.9 6.2q0 1.6-0.2 2.7c0.2 3.2 1.4 5.7 3.7 7.5 2.4 1.8 6 3.5 10.9 5.1 4.8 1.5 7.3 2.4 7.5 2.5 6.1 2.9 9.1 7.4 9.1 13.6 0 5.8-2.1 10.6-6.4 14.6-4.3 3.9-10.2 6-17.8 6.2-2.3 0-5-0.4-8.3-1.2-3.2-0.8-5.9-1.8-8.2-3.1 0.3-1 0.8-2.4 1.4-4.2q0.9-2.8 1.3-5.4h0.9c2 3.1 4.4 5.5 7.3 7.2 2.8 1.7 5.5 2.5 8.2 2.5 3.8 0 6.8-1.3 9.1-3.7 2.2-2.4 3.4-5 3.4-8q0-5.4-3.2-7.9c-2-1.7-5.2-3.1-9.3-4.2-4.7-1.3-8.2-2.4-10.4-3.4q-3.4-1.6-5.6-4.9c-1.7-2.2-2.3-5.5-2.2-9.7z"></path><path id="Path 2" fill-rule="evenodd" class="s1" d="m1571.4 80.7c1.2 0.5 2.5 1 3.7 1.6 106.8 15 188.8 106.7 188.8 217.5 0 121.4-98.5 219.8-219.7 219.8-30.1 0-58.7-6-84.8-16.9-12 1.1-23.9 1.7-35.9 2q13.2-2.7 26.5-6.3c-74.3-35.3-125.6-110.9-125.6-198.6 0-98.8 65.4-182.5 155.3-210.1 7.9-5.4 16.1-10.5 24.3-15.3 65-38.2 143.8-41.4 217.2-38.1-54.1 7.8-104.3 18.6-149.8 44.4zm-114.6-79.9c23.3 3.3 42.2 21.9 42.2 41.6 0 19.6-18.9 32.9-42.2 29.6-23.3-3.3-42.2-22-42.2-41.6 0-19.7 18.9-33 42.2-29.6z"></path><path id="Path 3" fill-rule="evenodd" class="s2" d="m1370.1 433.9q-1.4-1.8-2.8-3.6c-7.3-10-13.9-20.5-19.5-31.7 45.1-96.5 122.4-167.1 224.4-190.5-105.3 52.8-170.3 130.2-202.1 225.8z"></path><path id="Path 4" fill-rule="evenodd" class="s2" d="m1559 81.4c68.7 24.6 130.8 88.4 141.1 182.6 5.7 51.3-10.3 97.9-36.4 131.9-48.3 63-101.8 85-194.2 100.6 63.8-18.1 132.5-62.3 160.9-123.4 17-36.8 23.7-80.8 5.4-132.9-23.6-67.1-79.4-103.8-144.4-114.5-36.7 23.4-80.2 63.9-102.3 127.7 7.4-49.9 13.2-115.2 116-175.5 46-27.1 117.2-36.4 170-38.1-50.9 7.9-91.3 28-116.1 41.6z"></path></svg>